PathFileType	4	(X/Y/Z)	TVC_39_BWA_04_walk_RCNL2025.trc
DataRate	CameraRate	NumFrames	NumMarkers	Units	OrigDataRate	OrigDataStartFrame	OrigNumFrames
100	100	7	27	mm	100	635	1269
Frame#	Time	R_Shoulder			L_Shoulder			C7			J_Notch			R_Elbow			L_Elbow			R_Wrist			L_Wrist			R_Asis			L_Asis			R_Psis			L_Psis			Sacral			Thoracic			Sternum			R_Thigh_Lateral			R_Knee_Lateral			R_Shank_Lateral			R_Ankle_Lateral			R_Heel			R_Toe			L_Thigh_Lateral			L_Knee_Lateral			L_Shank_Lateral			L_Ankle_Lateral			L_Heel			L_Toe		
		X1	Y1	Z1	X2	Y2	Z2	X3	Y3	Z3	X4	Y4	Z4	X5	Y5	Z5	X6	Y6	Z6	X7	Y7	Z7	X8	Y8	Z8	X9	Y9	Z9	X10	Y10	Z10	X11	Y11	Z11	X12	Y12	Z12	X13	Y13	Z13	X14	Y14	Z14	X15	Y15	Z15	X16	Y16	Z16	X17	Y17	Z17	X18	Y18	Z18	X19	Y19	Z19	X20	Y20	Z20	X21	Y21	Z21	X22	Y22	Z22	X23	Y23	Z23	X24	Y24	Z24	X25	Y25	Z25	X26	Y26	Z26	X27	Y27	Z27
635	6.34000000	-218.636505	1449.963135	477.029205	-182.423904	1491.634521	109.763664	-246.059036	1531.261841	291.900909	-86.428291	1420.949463	292.979797	-190.806854	1125.159912	573.063538	-198.373947	1187.901855	-37.079685	-65.575813	905.262421	532.191772	-73.463821	960.363403	10.851601	-125.772675	930.631348	382.315613	-120.453239	940.662292	91.253403	-322.716797	961.138367	288.031647	-320.521790	953.828430	179.468399	-321.619293	957.483398	233.750023	-319.844116	1204.524170	247.799683	-32.616856	1261.049438	288.435089	-158.643753	732.589844	458.535095	-117.020523	472.238831	383.762787	-191.754028	294.033966	436.192993	-221.651474	75.176079	333.720490	-262.486877	61.033524	278.430573	-80.104347	45.841358	349.517670	-146.592789	680.913879	3.720091	-117.659157	455.929749	69.377319	-214.033844	351.093414	16.698629	-375.254242	145.349625	105.109146	-422.900452	156.580276	158.506393	-268.392242	46.435860	115.074608
636	6.35000000	-216.451385	1449.046143	479.078552	-180.202957	1491.947510	112.190575	-243.675049	1530.909546	294.311432	-84.242371	1420.371826	295.067841	-189.077103	1124.241699	575.085022	-196.656342	1188.911499	-35.898243	-64.072813	904.186127	534.705246	-70.762794	961.875153	12.029467	-124.174690	929.973450	383.037323	-119.942245	940.472351	91.952736	-321.296539	961.041321	289.218781	-319.386932	953.687561	180.598618	-320.341736	957.364441	234.908699	-318.073792	1204.430664	249.346161	-30.663893	1260.363647	289.996979	-157.046982	732.209595	459.351410	-115.675591	471.755310	384.318970	-190.670395	293.585571	436.555389	-221.536011	75.062050	333.754883	-262.450012	61.061661	278.445587	-80.080185	45.838295	349.489929	-141.905792	681.980164	2.827163	-107.949432	457.399811	67.111519	-204.197968	353.159424	14.934968	-369.395172	151.204803	103.805611	-416.719849	164.182312	157.129730	-265.973389	48.286358	114.989838
637	6.36000000	-214.251755	1448.109741	481.036835	-178.005646	1492.173828	114.507797	-241.298401	1530.519409	296.617615	-82.068024	1419.744751	297.049713	-187.355545	1123.309448	577.060120	-194.933777	1189.789673	-34.755421	-62.653118	903.054382	537.218735	-68.133381	963.212372	13.099010	-122.584930	929.301575	383.756165	-119.459312	940.186890	92.627098	-319.899750	960.895874	290.433746	-318.300476	953.478271	181.764679	-319.100113	957.187073	236.099213	-316.331390	1204.301758	250.853638	-28.734745	1259.627075	291.464844	-155.364792	731.827881	460.201691	-114.260445	471.239960	384.916229	-189.515732	293.103088	436.943298	-221.411545	74.950569	333.791107	-262.414032	61.093910	278.474182	-80.053490	45.835094	349.464813	-137.382523	683.066772	1.978732	-98.220390	459.027710	64.922852	-194.116348	355.190369	13.248771	-363.050323	156.908081	102.610489	-410.085541	171.525436	155.866348	-262.869659	50.410637	114.894379
638	6.37000000	-212.037521	1447.163574	482.898560	-175.835144	1492.316284	116.706512	-238.930222	1530.097656	298.811493	-79.905556	1419.075806	298.918823	-185.636337	1122.373291	578.979126	-193.206970	1190.532471	-33.650074	-61.315729	901.875458	539.721680	-65.579695	964.368347	14.058773	-121.001503	928.625427	384.472321	-118.984932	939.813416	93.279984	-318.522095	960.706970	291.671417	-317.254059	953.206421	182.961624	-317.888077	956.956696	237.316521	-314.614624	1204.142334	252.318100	-26.828503	1258.848145	292.835052	-153.612762	731.446472	461.078278	-112.788612	470.697357	385.546997	-188.304642	292.592560	437.350830	-221.279953	74.843353	333.828430	-262.378937	61.131298	278.516022	-80.024681	45.831940	349.442108	-133.071930	684.152039	1.203941	-88.557587	460.805481	62.851887	-183.896759	357.169342	11.685955	-356.216949	162.315155	101.571815	-403.008209	178.403000	154.780670	-258.950287	52.760872	114.776474
639	6.38000000	-209.808807	1446.217773	484.658813	-173.694397	1492.379639	118.778900	-236.571686	1529.651123	300.885864	-77.755188	1418.373901	300.669373	-183.914581	1121.444580	580.832764	-191.477798	1191.139038	-32.581383	-60.059402	900.658966	542.203369	-63.105818	965.339966	14.908332	-119.422585	927.955383	385.185730	-118.501579	939.360474	93.914650	-317.159119	960.480713	292.925903	-316.238678	952.879211	184.183472	-316.698898	956.679962	238.554688	-312.920898	1203.957275	253.735748	-24.943895	1258.036133	294.104828	-151.807831	731.067566	461.972504	-111.276047	470.133240	386.202698	-187.054169	292.061493	437.771637	-221.143311	74.741814	333.866364	-262.344849	61.174629	278.570435	-79.994202	45.829067	349.421661	-129.015198	685.212585	0.528031	-79.041649	462.720520	60.934650	-173.650040	359.084381	10.287699	-348.889404	167.278870	100.734413	-395.492096	184.608597	153.934387	-254.090149	55.270424	114.625336
640	6.39000000	-207.566010	1445.283203	486.313202	-171.585907	1492.369995	120.718224	-234.223862	1529.187500	302.834290	-75.616989	1417.648438	302.296417	-182.186554	1120.535156	582.612000	-189.749023	1191.610840	-31.548933	-58.882526	899.415833	544.652863	-60.715782	966.127167	15.648314	-117.846428	927.302063	385.896118	-117.994438	938.837463	94.533974	-315.806335	960.224182	294.190826	-315.244995	952.505188	185.423492	-315.525665	956.364685	239.807159	-311.247314	1203.752197	255.102921	-23.079302	1257.200928	295.272095	-149.966949	730.693909	462.875305	-109.740677	469.554352	386.874268	-185.783218	291.518646	438.199463	-221.003860	74.647057	333.904419	-262.311829	61.224461	278.636353	-79.962570	45.826729	349.403198	-125.242592	686.225586	-0.029027	-69.745697	464.756104	59.201500	-163.484573	360.928375	9.088301	-341.057770	171.656693	100.137009	-387.532227	189.948517	153.382339	-248.177658	57.857513	114.432732
641	6.40000000	-205.309677	1444.370728	487.858002	-169.511703	1492.294312	122.518929	-231.887756	1528.714355	304.651215	-73.490883	1416.909546	303.795959	-180.449707	1119.657227	584.308594	-188.024277	1191.952271	-30.552732	-57.783060	898.157898	547.059143	-58.413492	966.733063	16.280350	-116.271393	926.676086	386.603088	-117.451591	938.254028	95.140343	-314.459473	959.945190	295.459320	-314.263641	952.093567	186.674393	-314.361557	956.019379	241.066856	-309.590729	1203.532837	256.416260	-21.232790	1256.353149	296.335754	-148.106125	730.328247	463.777954	-108.201828	468.968170	387.552643	-184.511963	290.973480	438.628265	-220.863937	74.559799	333.942474	-262.280060	61.281044	278.712463	-79.930389	45.825134	349.386597	-121.771248	687.170959	-0.453242	-60.733147	466.892212	57.676460	-153.500748	362.697998	8.113748	-332.707245	175.318573	99.809685	-379.113068	194.253708	153.168610	-241.121948	60.430138	114.194405
